<?xml version="1.0" encoding="utf-8" standalone="no"?>
<!DOCTYPE svg PUBLIC "-//W3C//DTD SVG 1.1//EN"
  "http://www.w3.org/Graphics/SVG/1.1/DTD/svg11.dtd">
<!-- Created with matplotlib (https://matplotlib.org/) -->
<svg height="584.14619pt" version="1.1" viewBox="0 0 1453.036875 584.14619" width="1453.036875pt" xmlns="http://www.w3.org/2000/svg" xmlns:xlink="http://www.w3.org/1999/xlink">
 <defs>
  <style type="text/css">
*{stroke-linecap:butt;stroke-linejoin:round;}
  </style>
 </defs>
 <g id="figure_1">
  <g id="patch_1">
   <path d="M 0 584.14619 
L 1453.036875 584.14619 
L 1453.036875 0 
L 0 0 
z
" style="fill:#ffffff;"/>
  </g>
  <g id="axes_1">
   <g id="patch_2">
    <path d="M 50.836875 514.9575 
L 1445.836875 514.9575 
L 1445.836875 25.3575 
L 50.836875 25.3575 
z
" style="fill:#e5e5e5;"/>
   </g>
   <g id="matplotlib.axis_1">
    <g id="xtick_1">
     <g id="line2d_1">
      <path clip-path="url(#p88573a1444)" d="M 204.830381 514.9575 
L 204.830381 25.3575 
" style="fill:none;stroke:#ffffff;stroke-linecap:square;stroke-width:0.8;"/>
     </g>
     <g id="line2d_2">
      <defs>
       <path d="M 0 0 
L 0 3.5 
" id="mcbf57e7ef2" style="stroke:#555555;stroke-width:0.8;"/>
      </defs>
      <g>
       <use style="fill:#555555;stroke:#555555;stroke-width:0.8;" x="204.830381" xlink:href="#mcbf57e7ef2" y="514.9575"/>
      </g>
     </g>
     <g id="text_1">
      <!-- 2020-03-01 -->
      <defs>
       <path d="M 19.1875 8.296875 
L 53.609375 8.296875 
L 53.609375 0 
L 7.328125 0 
L 7.328125 8.296875 
Q 12.9375 14.109375 22.625 23.890625 
Q 32.328125 33.6875 34.8125 36.53125 
Q 39.546875 41.84375 41.421875 45.53125 
Q 43.3125 49.21875 43.3125 52.78125 
Q 43.3125 58.59375 39.234375 62.25 
Q 35.15625 65.921875 28.609375 65.921875 
Q 23.96875 65.921875 18.8125 64.3125 
Q 13.671875 62.703125 7.8125 59.421875 
L 7.8125 69.390625 
Q 13.765625 71.78125 18.9375 73 
Q 24.125 74.21875 28.421875 74.21875 
Q 39.75 74.21875 46.484375 68.546875 
Q 53.21875 62.890625 53.21875 53.421875 
Q 53.21875 48.921875 51.53125 44.890625 
Q 49.859375 40.875 45.40625 35.40625 
Q 44.1875 33.984375 37.640625 27.21875 
Q 31.109375 20.453125 19.1875 8.296875 
z
" id="DejaVuSans-50"/>
       <path d="M 31.78125 66.40625 
Q 24.171875 66.40625 20.328125 58.90625 
Q 16.5 51.421875 16.5 36.375 
Q 16.5 21.390625 20.328125 13.890625 
Q 24.171875 6.390625 31.78125 6.390625 
Q 39.453125 6.390625 43.28125 13.890625 
Q 47.125 21.390625 47.125 36.375 
Q 47.125 51.421875 43.28125 58.90625 
Q 39.453125 66.40625 31.78125 66.40625 
z
M 31.78125 74.21875 
Q 44.046875 74.21875 50.515625 64.515625 
Q 56.984375 54.828125 56.984375 36.375 
Q 56.984375 17.96875 50.515625 8.265625 
Q 44.046875 -1.421875 31.78125 -1.421875 
Q 19.53125 -1.421875 13.0625 8.265625 
Q 6.59375 17.96875 6.59375 36.375 
Q 6.59375 54.828125 13.0625 64.515625 
Q 19.53125 74.21875 31.78125 74.21875 
z
" id="DejaVuSans-48"/>
       <path d="M 4.890625 31.390625 
L 31.203125 31.390625 
L 31.203125 23.390625 
L 4.890625 23.390625 
z
" id="DejaVuSans-45"/>
       <path d="M 40.578125 39.3125 
Q 47.65625 37.796875 51.625 33 
Q 55.609375 28.21875 55.609375 21.1875 
Q 55.609375 10.40625 48.1875 4.484375 
Q 40.765625 -1.421875 27.09375 -1.421875 
Q 22.515625 -1.421875 17.65625 -0.515625 
Q 12.796875 0.390625 7.625 2.203125 
L 7.625 11.71875 
Q 11.71875 9.328125 16.59375 8.109375 
Q 21.484375 6.890625 26.8125 6.890625 
Q 36.078125 6.890625 40.9375 10.546875 
Q 45.796875 14.203125 45.796875 21.1875 
Q 45.796875 27.640625 41.28125 31.265625 
Q 36.765625 34.90625 28.71875 34.90625 
L 20.21875 34.90625 
L 20.21875 43.015625 
L 29.109375 43.015625 
Q 36.375 43.015625 40.234375 45.921875 
Q 44.09375 48.828125 44.09375 54.296875 
Q 44.09375 59.90625 40.109375 62.90625 
Q 36.140625 65.921875 28.71875 65.921875 
Q 24.65625 65.921875 20.015625 65.03125 
Q 15.375 64.15625 9.8125 62.3125 
L 9.8125 71.09375 
Q 15.4375 72.65625 20.34375 73.4375 
Q 25.25 74.21875 29.59375 74.21875 
Q 40.828125 74.21875 47.359375 69.109375 
Q 53.90625 64.015625 53.90625 55.328125 
Q 53.90625 49.265625 50.4375 45.09375 
Q 46.96875 40.921875 40.578125 39.3125 
z
" id="DejaVuSans-51"/>
       <path d="M 12.40625 8.296875 
L 28.515625 8.296875 
L 28.515625 63.921875 
L 10.984375 60.40625 
L 10.984375 69.390625 
L 28.421875 72.90625 
L 38.28125 72.90625 
L 38.28125 8.296875 
L 54.390625 8.296875 
L 54.390625 0 
L 12.40625 0 
z
" id="DejaVuSans-49"/>
      </defs>
      <g style="fill:#555555;" transform="translate(153.46093 557.595752)rotate(-30)scale(0.1 -0.1)">
       <use xlink:href="#DejaVuSans-50"/>
       <use x="63.623047" xlink:href="#DejaVuSans-48"/>
       <use x="127.246094" xlink:href="#DejaVuSans-50"/>
       <use x="190.869141" xlink:href="#DejaVuSans-48"/>
       <use x="254.492188" xlink:href="#DejaVuSans-45"/>
       <use x="290.576172" xlink:href="#DejaVuSans-48"/>
       <use x="354.199219" xlink:href="#DejaVuSans-51"/>
       <use x="417.822266" xlink:href="#DejaVuSans-45"/>
       <use x="453.90625" xlink:href="#DejaVuSans-48"/>
       <use x="517.529297" xlink:href="#DejaVuSans-49"/>
      </g>
     </g>
    </g>
    <g id="xtick_2">
     <g id="line2d_3">
      <path clip-path="url(#p88573a1444)" d="M 363.353109 514.9575 
L 363.353109 25.3575 
" style="fill:none;stroke:#ffffff;stroke-linecap:square;stroke-width:0.8;"/>
     </g>
     <g id="line2d_4">
      <g>
       <use style="fill:#555555;stroke:#555555;stroke-width:0.8;" x="363.353109" xlink:href="#mcbf57e7ef2" y="514.9575"/>
      </g>
     </g>
     <g id="text_2">
      <!-- 2020-03-08 -->
      <defs>
       <path d="M 31.78125 34.625 
Q 24.75 34.625 20.71875 30.859375 
Q 16.703125 27.09375 16.703125 20.515625 
Q 16.703125 13.921875 20.71875 10.15625 
Q 24.75 6.390625 31.78125 6.390625 
Q 38.8125 6.390625 42.859375 10.171875 
Q 46.921875 13.96875 46.921875 20.515625 
Q 46.921875 27.09375 42.890625 30.859375 
Q 38.875 34.625 31.78125 34.625 
z
M 21.921875 38.8125 
Q 15.578125 40.375 12.03125 44.71875 
Q 8.5 49.078125 8.5 55.328125 
Q 8.5 64.0625 14.71875 69.140625 
Q 20.953125 74.21875 31.78125 74.21875 
Q 42.671875 74.21875 48.875 69.140625 
Q 55.078125 64.0625 55.078125 55.328125 
Q 55.078125 49.078125 51.53125 44.71875 
Q 48 40.375 41.703125 38.8125 
Q 48.828125 37.15625 52.796875 32.3125 
Q 56.78125 27.484375 56.78125 20.515625 
Q 56.78125 9.90625 50.3125 4.234375 
Q 43.84375 -1.421875 31.78125 -1.421875 
Q 19.734375 -1.421875 13.25 4.234375 
Q 6.78125 9.90625 6.78125 20.515625 
Q 6.78125 27.484375 10.78125 32.3125 
Q 14.796875 37.15625 21.921875 38.8125 
z
M 18.3125 54.390625 
Q 18.3125 48.734375 21.84375 45.5625 
Q 25.390625 42.390625 31.78125 42.390625 
Q 38.140625 42.390625 41.71875 45.5625 
Q 45.3125 48.734375 45.3125 54.390625 
Q 45.3125 60.0625 41.71875 63.234375 
Q 38.140625 66.40625 31.78125 66.40625 
Q 25.390625 66.40625 21.84375 63.234375 
Q 18.3125 60.0625 18.3125 54.390625 
z
" id="DejaVuSans-56"/>
      </defs>
      <g style="fill:#555555;" transform="translate(311.983657 557.595752)rotate(-30)scale(0.1 -0.1)">
       <use xlink:href="#DejaVuSans-50"/>
       <use x="63.623047" xlink:href="#DejaVuSans-48"/>
       <use x="127.246094" xlink:href="#DejaVuSans-50"/>
       <use x="190.869141" xlink:href="#DejaVuSans-48"/>
       <use x="254.492188" xlink:href="#DejaVuSans-45"/>
       <use x="290.576172" xlink:href="#DejaVuSans-48"/>
       <use x="354.199219" xlink:href="#DejaVuSans-51"/>
       <use x="417.822266" xlink:href="#DejaVuSans-45"/>
       <use x="453.90625" xlink:href="#DejaVuSans-48"/>
       <use x="517.529297" xlink:href="#DejaVuSans-56"/>
      </g>
     </g>
    </g>
    <g id="xtick_3">
     <g id="line2d_5">
      <path clip-path="url(#p88573a1444)" d="M 521.875836 514.9575 
L 521.875836 25.3575 
" style="fill:none;stroke:#ffffff;stroke-linecap:square;stroke-width:0.8;"/>
     </g>
     <g id="line2d_6">
      <g>
       <use style="fill:#555555;stroke:#555555;stroke-width:0.8;" x="521.875836" xlink:href="#mcbf57e7ef2" y="514.9575"/>
      </g>
     </g>
     <g id="text_3">
      <!-- 2020-03-15 -->
      <defs>
       <path d="M 10.796875 72.90625 
L 49.515625 72.90625 
L 49.515625 64.59375 
L 19.828125 64.59375 
L 19.828125 46.734375 
Q 21.96875 47.46875 24.109375 47.828125 
Q 26.265625 48.1875 28.421875 48.1875 
Q 40.625 48.1875 47.75 41.5 
Q 54.890625 34.8125 54.890625 23.390625 
Q 54.890625 11.625 47.5625 5.09375 
Q 40.234375 -1.421875 26.90625 -1.421875 
Q 22.3125 -1.421875 17.546875 -0.640625 
Q 12.796875 0.140625 7.71875 1.703125 
L 7.71875 11.625 
Q 12.109375 9.234375 16.796875 8.0625 
Q 21.484375 6.890625 26.703125 6.890625 
Q 35.15625 6.890625 40.078125 11.328125 
Q 45.015625 15.765625 45.015625 23.390625 
Q 45.015625 31 40.078125 35.4375 
Q 35.15625 39.890625 26.703125 39.890625 
Q 22.75 39.890625 18.8125 39.015625 
Q 14.890625 38.140625 10.796875 36.28125 
z
" id="DejaVuSans-53"/>
      </defs>
      <g style="fill:#555555;" transform="translate(470.506385 557.595752)rotate(-30)scale(0.1 -0.1)">
       <use xlink:href="#DejaVuSans-50"/>
       <use x="63.623047" xlink:href="#DejaVuSans-48"/>
       <use x="127.246094" xlink:href="#DejaVuSans-50"/>
       <use x="190.869141" xlink:href="#DejaVuSans-48"/>
       <use x="254.492188" xlink:href="#DejaVuSans-45"/>
       <use x="290.576172" xlink:href="#DejaVuSans-48"/>
       <use x="354.199219" xlink:href="#DejaVuSans-51"/>
       <use x="417.822266" xlink:href="#DejaVuSans-45"/>
       <use x="453.90625" xlink:href="#DejaVuSans-49"/>
       <use x="517.529297" xlink:href="#DejaVuSans-53"/>
      </g>
     </g>
    </g>
    <g id="xtick_4">
     <g id="line2d_7">
      <path clip-path="url(#p88573a1444)" d="M 680.398563 514.9575 
L 680.398563 25.3575 
" style="fill:none;stroke:#ffffff;stroke-linecap:square;stroke-width:0.8;"/>
     </g>
     <g id="line2d_8">
      <g>
       <use style="fill:#555555;stroke:#555555;stroke-width:0.8;" x="680.398563" xlink:href="#mcbf57e7ef2" y="514.9575"/>
      </g>
     </g>
     <g id="text_4">
      <!-- 2020-03-22 -->
      <g style="fill:#555555;" transform="translate(629.029112 557.595752)rotate(-30)scale(0.1 -0.1)">
       <use xlink:href="#DejaVuSans-50"/>
       <use x="63.623047" xlink:href="#DejaVuSans-48"/>
       <use x="127.246094" xlink:href="#DejaVuSans-50"/>
       <use x="190.869141" xlink:href="#DejaVuSans-48"/>
       <use x="254.492188" xlink:href="#DejaVuSans-45"/>
       <use x="290.576172" xlink:href="#DejaVuSans-48"/>
       <use x="354.199219" xlink:href="#DejaVuSans-51"/>
       <use x="417.822266" xlink:href="#DejaVuSans-45"/>
       <use x="453.90625" xlink:href="#DejaVuSans-50"/>
       <use x="517.529297" xlink:href="#DejaVuSans-50"/>
      </g>
     </g>
    </g>
    <g id="xtick_5">
     <g id="line2d_9">
      <path clip-path="url(#p88573a1444)" d="M 906.859602 514.9575 
L 906.859602 25.3575 
" style="fill:none;stroke:#ffffff;stroke-linecap:square;stroke-width:0.8;"/>
     </g>
     <g id="line2d_10">
      <g>
       <use style="fill:#555555;stroke:#555555;stroke-width:0.8;" x="906.859602" xlink:href="#mcbf57e7ef2" y="514.9575"/>
      </g>
     </g>
     <g id="text_5">
      <!-- 2020-04-01 -->
      <defs>
       <path d="M 37.796875 64.3125 
L 12.890625 25.390625 
L 37.796875 25.390625 
z
M 35.203125 72.90625 
L 47.609375 72.90625 
L 47.609375 25.390625 
L 58.015625 25.390625 
L 58.015625 17.1875 
L 47.609375 17.1875 
L 47.609375 0 
L 37.796875 0 
L 37.796875 17.1875 
L 4.890625 17.1875 
L 4.890625 26.703125 
z
" id="DejaVuSans-52"/>
      </defs>
      <g style="fill:#555555;" transform="translate(855.490151 557.595752)rotate(-30)scale(0.1 -0.1)">
       <use xlink:href="#DejaVuSans-50"/>
       <use x="63.623047" xlink:href="#DejaVuSans-48"/>
       <use x="127.246094" xlink:href="#DejaVuSans-50"/>
       <use x="190.869141" xlink:href="#DejaVuSans-48"/>
       <use x="254.492188" xlink:href="#DejaVuSans-45"/>
       <use x="290.576172" xlink:href="#DejaVuSans-48"/>
       <use x="354.199219" xlink:href="#DejaVuSans-52"/>
       <use x="417.822266" xlink:href="#DejaVuSans-45"/>
       <use x="453.90625" xlink:href="#DejaVuSans-48"/>
       <use x="517.529297" xlink:href="#DejaVuSans-49"/>
      </g>
     </g>
    </g>
    <g id="xtick_6">
     <g id="line2d_11">
      <path clip-path="url(#p88573a1444)" d="M 1065.38233 514.9575 
L 1065.38233 25.3575 
" style="fill:none;stroke:#ffffff;stroke-linecap:square;stroke-width:0.8;"/>
     </g>
     <g id="line2d_12">
      <g>
       <use style="fill:#555555;stroke:#555555;stroke-width:0.8;" x="1065.38233" xlink:href="#mcbf57e7ef2" y="514.9575"/>
      </g>
     </g>
     <g id="text_6">
      <!-- 2020-04-08 -->
      <g style="fill:#555555;" transform="translate(1014.012878 557.595752)rotate(-30)scale(0.1 -0.1)">
       <use xlink:href="#DejaVuSans-50"/>
       <use x="63.623047" xlink:href="#DejaVuSans-48"/>
       <use x="127.246094" xlink:href="#DejaVuSans-50"/>
       <use x="190.869141" xlink:href="#DejaVuSans-48"/>
       <use x="254.492188" xlink:href="#DejaVuSans-45"/>
       <use x="290.576172" xlink:href="#DejaVuSans-48"/>
       <use x="354.199219" xlink:href="#DejaVuSans-52"/>
       <use x="417.822266" xlink:href="#DejaVuSans-45"/>
       <use x="453.90625" xlink:href="#DejaVuSans-48"/>
       <use x="517.529297" xlink:href="#DejaVuSans-56"/>
      </g>
     </g>
    </g>
    <g id="xtick_7">
     <g id="line2d_13">
      <path clip-path="url(#p88573a1444)" d="M 1223.905057 514.9575 
L 1223.905057 25.3575 
" style="fill:none;stroke:#ffffff;stroke-linecap:square;stroke-width:0.8;"/>
     </g>
     <g id="line2d_14">
      <g>
       <use style="fill:#555555;stroke:#555555;stroke-width:0.8;" x="1223.905057" xlink:href="#mcbf57e7ef2" y="514.9575"/>
      </g>
     </g>
     <g id="text_7">
      <!-- 2020-04-15 -->
      <g style="fill:#555555;" transform="translate(1172.535605 557.595752)rotate(-30)scale(0.1 -0.1)">
       <use xlink:href="#DejaVuSans-50"/>
       <use x="63.623047" xlink:href="#DejaVuSans-48"/>
       <use x="127.246094" xlink:href="#DejaVuSans-50"/>
       <use x="190.869141" xlink:href="#DejaVuSans-48"/>
       <use x="254.492188" xlink:href="#DejaVuSans-45"/>
       <use x="290.576172" xlink:href="#DejaVuSans-48"/>
       <use x="354.199219" xlink:href="#DejaVuSans-52"/>
       <use x="417.822266" xlink:href="#DejaVuSans-45"/>
       <use x="453.90625" xlink:href="#DejaVuSans-49"/>
       <use x="517.529297" xlink:href="#DejaVuSans-53"/>
      </g>
     </g>
    </g>
    <g id="xtick_8">
     <g id="line2d_15">
      <path clip-path="url(#p88573a1444)" d="M 1382.427784 514.9575 
L 1382.427784 25.3575 
" style="fill:none;stroke:#ffffff;stroke-linecap:square;stroke-width:0.8;"/>
     </g>
     <g id="line2d_16">
      <g>
       <use style="fill:#555555;stroke:#555555;stroke-width:0.8;" x="1382.427784" xlink:href="#mcbf57e7ef2" y="514.9575"/>
      </g>
     </g>
     <g id="text_8">
      <!-- 2020-04-22 -->
      <g style="fill:#555555;" transform="translate(1331.058333 557.595752)rotate(-30)scale(0.1 -0.1)">
       <use xlink:href="#DejaVuSans-50"/>
       <use x="63.623047" xlink:href="#DejaVuSans-48"/>
       <use x="127.246094" xlink:href="#DejaVuSans-50"/>
       <use x="190.869141" xlink:href="#DejaVuSans-48"/>
       <use x="254.492188" xlink:href="#DejaVuSans-45"/>
       <use x="290.576172" xlink:href="#DejaVuSans-48"/>
       <use x="354.199219" xlink:href="#DejaVuSans-52"/>
       <use x="417.822266" xlink:href="#DejaVuSans-45"/>
       <use x="453.90625" xlink:href="#DejaVuSans-50"/>
       <use x="517.529297" xlink:href="#DejaVuSans-50"/>
      </g>
     </g>
    </g>
    <g id="text_9">
     <!-- Date -->
     <defs>
      <path d="M 19.671875 64.796875 
L 19.671875 8.109375 
L 31.59375 8.109375 
Q 46.6875 8.109375 53.6875 14.9375 
Q 60.6875 21.78125 60.6875 36.53125 
Q 60.6875 51.171875 53.6875 57.984375 
Q 46.6875 64.796875 31.59375 64.796875 
z
M 9.8125 72.90625 
L 30.078125 72.90625 
Q 51.265625 72.90625 61.171875 64.09375 
Q 71.09375 55.28125 71.09375 36.53125 
Q 71.09375 17.671875 61.125 8.828125 
Q 51.171875 0 30.078125 0 
L 9.8125 0 
z
" id="DejaVuSans-68"/>
      <path d="M 34.28125 27.484375 
Q 23.390625 27.484375 19.1875 25 
Q 14.984375 22.515625 14.984375 16.5 
Q 14.984375 11.71875 18.140625 8.90625 
Q 21.296875 6.109375 26.703125 6.109375 
Q 34.1875 6.109375 38.703125 11.40625 
Q 43.21875 16.703125 43.21875 25.484375 
L 43.21875 27.484375 
z
M 52.203125 31.203125 
L 52.203125 0 
L 43.21875 0 
L 43.21875 8.296875 
Q 40.140625 3.328125 35.546875 0.953125 
Q 30.953125 -1.421875 24.3125 -1.421875 
Q 15.921875 -1.421875 10.953125 3.296875 
Q 6 8.015625 6 15.921875 
Q 6 25.140625 12.171875 29.828125 
Q 18.359375 34.515625 30.609375 34.515625 
L 43.21875 34.515625 
L 43.21875 35.40625 
Q 43.21875 41.609375 39.140625 45 
Q 35.0625 48.390625 27.6875 48.390625 
Q 23 48.390625 18.546875 47.265625 
Q 14.109375 46.140625 10.015625 43.890625 
L 10.015625 52.203125 
Q 14.9375 54.109375 19.578125 55.046875 
Q 24.21875 56 28.609375 56 
Q 40.484375 56 46.34375 49.84375 
Q 52.203125 43.703125 52.203125 31.203125 
z
" id="DejaVuSans-97"/>
      <path d="M 18.3125 70.21875 
L 18.3125 54.6875 
L 36.8125 54.6875 
L 36.8125 47.703125 
L 18.3125 47.703125 
L 18.3125 18.015625 
Q 18.3125 11.328125 20.140625 9.421875 
Q 21.96875 7.515625 27.59375 7.515625 
L 36.8125 7.515625 
L 36.8125 0 
L 27.59375 0 
Q 17.1875 0 13.234375 3.875 
Q 9.28125 7.765625 9.28125 18.015625 
L 9.28125 47.703125 
L 2.6875 47.703125 
L 2.6875 54.6875 
L 9.28125 54.6875 
L 9.28125 70.21875 
z
" id="DejaVuSans-116"/>
      <path d="M 56.203125 29.59375 
L 56.203125 25.203125 
L 14.890625 25.203125 
Q 15.484375 15.921875 20.484375 11.0625 
Q 25.484375 6.203125 34.421875 6.203125 
Q 39.59375 6.203125 44.453125 7.46875 
Q 49.3125 8.734375 54.109375 11.28125 
L 54.109375 2.78125 
Q 49.265625 0.734375 44.1875 -0.34375 
Q 39.109375 -1.421875 33.890625 -1.421875 
Q 20.796875 -1.421875 13.15625 6.1875 
Q 5.515625 13.8125 5.515625 26.8125 
Q 5.515625 40.234375 12.765625 48.109375 
Q 20.015625 56 32.328125 56 
Q 43.359375 56 49.78125 48.890625 
Q 56.203125 41.796875 56.203125 29.59375 
z
M 47.21875 32.234375 
Q 47.125 39.59375 43.09375 43.984375 
Q 39.0625 48.390625 32.421875 48.390625 
Q 24.90625 48.390625 20.390625 44.140625 
Q 15.875 39.890625 15.1875 32.171875 
z
" id="DejaVuSans-101"/>
     </defs>
     <g style="fill:#555555;" transform="translate(731.605781 574.034627)scale(0.14 -0.14)">
      <use xlink:href="#DejaVuSans-68"/>
      <use x="77.001953" xlink:href="#DejaVuSans-97"/>
      <use x="138.28125" xlink:href="#DejaVuSans-116"/>
      <use x="177.490234" xlink:href="#DejaVuSans-101"/>
     </g>
    </g>
   </g>
   <g id="matplotlib.axis_2">
    <g id="ytick_1">
     <g id="line2d_17">
      <path clip-path="url(#p88573a1444)" d="M 50.836875 514.9575 
L 1445.836875 514.9575 
" style="fill:none;stroke:#ffffff;stroke-linecap:square;stroke-width:0.8;"/>
     </g>
     <g id="line2d_18">
      <defs>
       <path d="M 0 0 
L -3.5 0 
" id="mdb3361c87e" style="stroke:#555555;stroke-width:0.8;"/>
      </defs>
      <g>
       <use style="fill:#555555;stroke:#555555;stroke-width:0.8;" x="50.836875" xlink:href="#mdb3361c87e" y="514.9575"/>
      </g>
     </g>
     <g id="text_10">
      <!-- 0 -->
      <g style="fill:#555555;" transform="translate(37.474375 518.756719)scale(0.1 -0.1)">
       <use xlink:href="#DejaVuSans-48"/>
      </g>
     </g>
    </g>
    <g id="ytick_2">
     <g id="line2d_19">
      <path clip-path="url(#p88573a1444)" d="M 50.836875 407.020992 
L 1445.836875 407.020992 
" style="fill:none;stroke:#ffffff;stroke-linecap:square;stroke-width:0.8;"/>
     </g>
     <g id="line2d_20">
      <g>
       <use style="fill:#555555;stroke:#555555;stroke-width:0.8;" x="50.836875" xlink:href="#mdb3361c87e" y="407.020992"/>
      </g>
     </g>
     <g id="text_11">
      <!-- 50 -->
      <g style="fill:#555555;" transform="translate(31.111875 410.820211)scale(0.1 -0.1)">
       <use xlink:href="#DejaVuSans-53"/>
       <use x="63.623047" xlink:href="#DejaVuSans-48"/>
      </g>
     </g>
    </g>
    <g id="ytick_3">
     <g id="line2d_21">
      <path clip-path="url(#p88573a1444)" d="M 50.836875 299.084484 
L 1445.836875 299.084484 
" style="fill:none;stroke:#ffffff;stroke-linecap:square;stroke-width:0.8;"/>
     </g>
     <g id="line2d_22">
      <g>
       <use style="fill:#555555;stroke:#555555;stroke-width:0.8;" x="50.836875" xlink:href="#mdb3361c87e" y="299.084484"/>
      </g>
     </g>
     <g id="text_12">
      <!-- 100 -->
      <g style="fill:#555555;" transform="translate(24.749375 302.883703)scale(0.1 -0.1)">
       <use xlink:href="#DejaVuSans-49"/>
       <use x="63.623047" xlink:href="#DejaVuSans-48"/>
       <use x="127.246094" xlink:href="#DejaVuSans-48"/>
      </g>
     </g>
    </g>
    <g id="ytick_4">
     <g id="line2d_23">
      <path clip-path="url(#p88573a1444)" d="M 50.836875 191.147976 
L 1445.836875 191.147976 
" style="fill:none;stroke:#ffffff;stroke-linecap:square;stroke-width:0.8;"/>
     </g>
     <g id="line2d_24">
      <g>
       <use style="fill:#555555;stroke:#555555;stroke-width:0.8;" x="50.836875" xlink:href="#mdb3361c87e" y="191.147976"/>
      </g>
     </g>
     <g id="text_13">
      <!-- 150 -->
      <g style="fill:#555555;" transform="translate(24.749375 194.947195)scale(0.1 -0.1)">
       <use xlink:href="#DejaVuSans-49"/>
       <use x="63.623047" xlink:href="#DejaVuSans-53"/>
       <use x="127.246094" xlink:href="#DejaVuSans-48"/>
      </g>
     </g>
    </g>
    <g id="ytick_5">
     <g id="line2d_25">
      <path clip-path="url(#p88573a1444)" d="M 50.836875 83.211468 
L 1445.836875 83.211468 
" style="fill:none;stroke:#ffffff;stroke-linecap:square;stroke-width:0.8;"/>
     </g>
     <g id="line2d_26">
      <g>
       <use style="fill:#555555;stroke:#555555;stroke-width:0.8;" x="50.836875" xlink:href="#mdb3361c87e" y="83.211468"/>
      </g>
     </g>
     <g id="text_14">
      <!-- 200 -->
      <g style="fill:#555555;" transform="translate(24.749375 87.010687)scale(0.1 -0.1)">
       <use xlink:href="#DejaVuSans-50"/>
       <use x="63.623047" xlink:href="#DejaVuSans-48"/>
       <use x="127.246094" xlink:href="#DejaVuSans-48"/>
      </g>
     </g>
    </g>
    <g id="text_15">
     <!-- Case No. -->
     <defs>
      <path d="M 64.40625 67.28125 
L 64.40625 56.890625 
Q 59.421875 61.53125 53.78125 63.8125 
Q 48.140625 66.109375 41.796875 66.109375 
Q 29.296875 66.109375 22.65625 58.46875 
Q 16.015625 50.828125 16.015625 36.375 
Q 16.015625 21.96875 22.65625 14.328125 
Q 29.296875 6.6875 41.796875 6.6875 
Q 48.140625 6.6875 53.78125 8.984375 
Q 59.421875 11.28125 64.40625 15.921875 
L 64.40625 5.609375 
Q 59.234375 2.09375 53.4375 0.328125 
Q 47.65625 -1.421875 41.21875 -1.421875 
Q 24.65625 -1.421875 15.125 8.703125 
Q 5.609375 18.84375 5.609375 36.375 
Q 5.609375 53.953125 15.125 64.078125 
Q 24.65625 74.21875 41.21875 74.21875 
Q 47.75 74.21875 53.53125 72.484375 
Q 59.328125 70.75 64.40625 67.28125 
z
" id="DejaVuSans-67"/>
      <path d="M 44.28125 53.078125 
L 44.28125 44.578125 
Q 40.484375 46.53125 36.375 47.5 
Q 32.28125 48.484375 27.875 48.484375 
Q 21.1875 48.484375 17.84375 46.4375 
Q 14.5 44.390625 14.5 40.28125 
Q 14.5 37.15625 16.890625 35.375 
Q 19.28125 33.59375 26.515625 31.984375 
L 29.59375 31.296875 
Q 39.15625 29.25 43.1875 25.515625 
Q 47.21875 21.78125 47.21875 15.09375 
Q 47.21875 7.46875 41.1875 3.015625 
Q 35.15625 -1.421875 24.609375 -1.421875 
Q 20.21875 -1.421875 15.453125 -0.5625 
Q 10.6875 0.296875 5.421875 2 
L 5.421875 11.28125 
Q 10.40625 8.6875 15.234375 7.390625 
Q 20.0625 6.109375 24.8125 6.109375 
Q 31.15625 6.109375 34.5625 8.28125 
Q 37.984375 10.453125 37.984375 14.40625 
Q 37.984375 18.0625 35.515625 20.015625 
Q 33.0625 21.96875 24.703125 23.78125 
L 21.578125 24.515625 
Q 13.234375 26.265625 9.515625 29.90625 
Q 5.8125 33.546875 5.8125 39.890625 
Q 5.8125 47.609375 11.28125 51.796875 
Q 16.75 56 26.8125 56 
Q 31.78125 56 36.171875 55.265625 
Q 40.578125 54.546875 44.28125 53.078125 
z
" id="DejaVuSans-115"/>
      <path id="DejaVuSans-32"/>
      <path d="M 9.8125 72.90625 
L 23.09375 72.90625 
L 55.421875 11.921875 
L 55.421875 72.90625 
L 64.984375 72.90625 
L 64.984375 0 
L 51.703125 0 
L 19.390625 60.984375 
L 19.390625 0 
L 9.8125 0 
z
" id="DejaVuSans-78"/>
      <path d="M 30.609375 48.390625 
Q 23.390625 48.390625 19.1875 42.75 
Q 14.984375 37.109375 14.984375 27.296875 
Q 14.984375 17.484375 19.15625 11.84375 
Q 23.34375 6.203125 30.609375 6.203125 
Q 37.796875 6.203125 41.984375 11.859375 
Q 46.1875 17.53125 46.1875 27.296875 
Q 46.1875 37.015625 41.984375 42.703125 
Q 37.796875 48.390625 30.609375 48.390625 
z
M 30.609375 56 
Q 42.328125 56 49.015625 48.375 
Q 55.71875 40.765625 55.71875 27.296875 
Q 55.71875 13.875 49.015625 6.21875 
Q 42.328125 -1.421875 30.609375 -1.421875 
Q 18.84375 -1.421875 12.171875 6.21875 
Q 5.515625 13.875 5.515625 27.296875 
Q 5.515625 40.765625 12.171875 48.375 
Q 18.84375 56 30.609375 56 
z
" id="DejaVuSans-111"/>
      <path d="M 10.6875 12.40625 
L 21 12.40625 
L 21 0 
L 10.6875 0 
z
" id="DejaVuSans-46"/>
     </defs>
     <g style="fill:#555555;" transform="translate(17.837813 301.257187)rotate(-90)scale(0.14 -0.14)">
      <use xlink:href="#DejaVuSans-67"/>
      <use x="69.824219" xlink:href="#DejaVuSans-97"/>
      <use x="131.103516" xlink:href="#DejaVuSans-115"/>
      <use x="183.203125" xlink:href="#DejaVuSans-101"/>
      <use x="244.726562" xlink:href="#DejaVuSans-32"/>
      <use x="276.513672" xlink:href="#DejaVuSans-78"/>
      <use x="351.318359" xlink:href="#DejaVuSans-111"/>
      <use x="412.484375" xlink:href="#DejaVuSans-46"/>
     </g>
    </g>
   </g>
   <g id="PolyCollection_1">
    <defs>
     <path d="M 114.245966 -69.18869 
L 114.245966 -69.18869 
L 227.476485 -69.18869 
L 272.768693 -69.18869 
L 295.414797 -69.18869 
L 318.060901 -69.18869 
L 453.937524 -69.18869 
L 476.583628 -69.18869 
L 499.229732 -69.18869 
L 521.875836 -69.18869 
L 544.52194 -69.18869 
L 567.168044 -69.18869 
L 589.814148 -69.18869 
L 612.460252 -69.18869 
L 635.106356 -69.18869 
L 657.752459 -69.18869 
L 680.398563 -69.18869 
L 703.044667 -69.18869 
L 725.690771 -69.18869 
L 748.336875 -69.18869 
L 770.982979 -69.18869 
L 793.629083 -69.18869 
L 816.275187 -69.18869 
L 838.921291 -69.18869 
L 861.567394 -69.18869 
L 884.213498 -69.18869 
L 906.859602 -69.18869 
L 929.505706 -69.18869 
L 952.15181 -69.18869 
L 974.797914 -69.18869 
L 997.444018 -69.18869 
L 1020.090122 -69.18869 
L 1042.736226 -69.18869 
L 1065.38233 -69.18869 
L 1088.028433 -69.18869 
L 1110.674537 -69.18869 
L 1133.320641 -69.18869 
L 1155.966745 -69.18869 
L 1178.612849 -69.18869 
L 1201.258953 -69.18869 
L 1223.905057 -69.18869 
L 1246.551161 -69.18869 
L 1269.197265 -69.18869 
L 1291.843369 -69.18869 
L 1314.489472 -69.18869 
L 1337.135576 -69.18869 
L 1359.78168 -69.18869 
L 1382.427784 -69.18869 
L 1382.427784 -535.474404 
L 1382.427784 -535.474404 
L 1359.78168 -535.474404 
L 1337.135576 -535.474404 
L 1314.489472 -535.474404 
L 1291.843369 -535.474404 
L 1269.197265 -535.474404 
L 1246.551161 -531.156944 
L 1223.905057 -528.998213 
L 1201.258953 -526.839483 
L 1178.612849 -522.522023 
L 1155.966745 -520.363293 
L 1133.320641 -511.728372 
L 1110.674537 -511.728372 
L 1088.028433 -500.934721 
L 1065.38233 -492.299801 
L 1042.736226 -485.82361 
L 1020.090122 -466.395039 
L 997.444018 -449.125198 
L 974.797914 -412.426785 
L 952.15181 -390.839483 
L 929.505706 -358.458531 
L 906.859602 -319.601388 
L 884.213498 -285.061705 
L 861.567394 -265.633134 
L 838.921291 -246.204563 
L 816.275187 -220.299801 
L 793.629083 -192.236309 
L 770.982979 -151.220436 
L 748.336875 -136.109325 
L 725.690771 -116.680753 
L 703.044667 -101.569642 
L 680.398563 -92.934721 
L 657.752459 -88.617261 
L 635.106356 -88.617261 
L 612.460252 -84.299801 
L 589.814148 -82.141071 
L 567.168044 -77.82361 
L 544.52194 -71.34742 
L 521.875836 -71.34742 
L 499.229732 -71.34742 
L 476.583628 -71.34742 
L 453.937524 -69.18869 
L 318.060901 -69.18869 
L 295.414797 -69.18869 
L 272.768693 -69.18869 
L 227.476485 -69.18869 
L 114.245966 -69.18869 
z
" id="m8c1ce85051" style="stroke:#e24a33;stroke-opacity:0.3;stroke-width:0.5;"/>
    </defs>
    <g clip-path="url(#p88573a1444)">
     <use style="fill:#e24a33;fill-opacity:0.3;stroke:#e24a33;stroke-opacity:0.3;stroke-width:0.5;" x="0" xlink:href="#m8c1ce85051" y="584.14619"/>
    </g>
   </g>
   <g id="PolyCollection_2">
    <defs>
     <path d="M 114.245966 -69.18869 
L 114.245966 -69.18869 
L 227.476485 -69.18869 
L 272.768693 -69.18869 
L 295.414797 -69.18869 
L 318.060901 -69.18869 
L 453.937524 -69.18869 
L 476.583628 -69.18869 
L 499.229732 -69.18869 
L 521.875836 -69.18869 
L 544.52194 -69.18869 
L 567.168044 -69.18869 
L 589.814148 -69.18869 
L 612.460252 -69.18869 
L 635.106356 -69.18869 
L 657.752459 -69.18869 
L 680.398563 -69.18869 
L 703.044667 -69.18869 
L 725.690771 -69.18869 
L 748.336875 -69.18869 
L 770.982979 -69.18869 
L 793.629083 -69.18869 
L 816.275187 -69.18869 
L 838.921291 -69.18869 
L 861.567394 -69.18869 
L 884.213498 -69.18869 
L 906.859602 -69.18869 
L 929.505706 -69.18869 
L 952.15181 -69.18869 
L 974.797914 -69.18869 
L 997.444018 -69.18869 
L 1020.090122 -69.18869 
L 1042.736226 -69.18869 
L 1065.38233 -69.18869 
L 1088.028433 -69.18869 
L 1110.674537 -69.18869 
L 1133.320641 -69.18869 
L 1155.966745 -69.18869 
L 1178.612849 -69.18869 
L 1201.258953 -69.18869 
L 1223.905057 -69.18869 
L 1246.551161 -69.18869 
L 1269.197265 -69.18869 
L 1291.843369 -69.18869 
L 1314.489472 -69.18869 
L 1337.135576 -69.18869 
L 1359.78168 -69.18869 
L 1382.427784 -69.18869 
L 1382.427784 -526.839483 
L 1382.427784 -526.839483 
L 1359.78168 -526.839483 
L 1337.135576 -526.839483 
L 1314.489472 -526.839483 
L 1291.843369 -524.680753 
L 1269.197265 -516.045832 
L 1246.551161 -513.887102 
L 1223.905057 -503.093452 
L 1201.258953 -500.934721 
L 1178.612849 -500.934721 
L 1155.966745 -487.98234 
L 1133.320641 -479.34742 
L 1110.674537 -462.077578 
L 1088.028433 -444.807737 
L 1065.38233 -436.172817 
L 1042.736226 -425.379166 
L 1020.090122 -405.950594 
L 997.444018 -403.791864 
L 974.797914 -384.363293 
L 952.15181 -354.141071 
L 929.505706 -336.871229 
L 906.859602 -313.125198 
L 884.213498 -287.220436 
L 861.567394 -261.315674 
L 838.921291 -244.045832 
L 816.275187 -209.50615 
L 793.629083 -181.442658 
L 770.982979 -172.807737 
L 748.336875 -149.061705 
L 725.690771 -127.474404 
L 703.044667 -105.887102 
L 680.398563 -101.569642 
L 657.752459 -90.775991 
L 635.106356 -88.617261 
L 612.460252 -84.299801 
L 589.814148 -82.141071 
L 567.168044 -82.141071 
L 544.52194 -77.82361 
L 521.875836 -77.82361 
L 499.229732 -75.66488 
L 476.583628 -75.66488 
L 453.937524 -75.66488 
L 318.060901 -75.66488 
L 295.414797 -75.66488 
L 272.768693 -73.50615 
L 227.476485 -71.34742 
L 114.245966 -69.18869 
z
" id="m991fbbaa51" style="stroke:#348abd;stroke-opacity:0.3;stroke-width:0.5;"/>
    </defs>
    <g clip-path="url(#p88573a1444)">
     <use style="fill:#348abd;fill-opacity:0.3;stroke:#348abd;stroke-opacity:0.3;stroke-width:0.5;" x="0" xlink:href="#m991fbbaa51" y="584.14619"/>
    </g>
   </g>
   <g id="PolyCollection_3">
    <defs>
     <path d="M 114.245966 -71.34742 
L 114.245966 -69.18869 
L 227.476485 -69.18869 
L 272.768693 -69.18869 
L 295.414797 -69.18869 
L 318.060901 -69.18869 
L 453.937524 -69.18869 
L 476.583628 -69.18869 
L 499.229732 -69.18869 
L 521.875836 -69.18869 
L 544.52194 -69.18869 
L 567.168044 -69.18869 
L 589.814148 -69.18869 
L 612.460252 -69.18869 
L 635.106356 -69.18869 
L 657.752459 -69.18869 
L 680.398563 -69.18869 
L 703.044667 -69.18869 
L 725.690771 -69.18869 
L 748.336875 -69.18869 
L 770.982979 -69.18869 
L 793.629083 -69.18869 
L 816.275187 -69.18869 
L 838.921291 -69.18869 
L 861.567394 -69.18869 
L 884.213498 -69.18869 
L 906.859602 -69.18869 
L 929.505706 -69.18869 
L 952.15181 -69.18869 
L 974.797914 -69.18869 
L 997.444018 -69.18869 
L 1020.090122 -69.18869 
L 1042.736226 -69.18869 
L 1065.38233 -69.18869 
L 1088.028433 -69.18869 
L 1110.674537 -69.18869 
L 1133.320641 -69.18869 
L 1155.966745 -69.18869 
L 1178.612849 -69.18869 
L 1201.258953 -69.18869 
L 1223.905057 -69.18869 
L 1246.551161 -69.18869 
L 1269.197265 -69.18869 
L 1291.843369 -69.18869 
L 1314.489472 -69.18869 
L 1337.135576 -69.18869 
L 1359.78168 -69.18869 
L 1382.427784 -69.18869 
L 1382.427784 -470.712499 
L 1382.427784 -470.712499 
L 1359.78168 -470.712499 
L 1337.135576 -468.553769 
L 1314.489472 -468.553769 
L 1291.843369 -468.553769 
L 1269.197265 -466.395039 
L 1246.551161 -462.077578 
L 1223.905057 -455.601388 
L 1201.258953 -455.601388 
L 1178.612849 -453.442658 
L 1155.966745 -451.283928 
L 1133.320641 -444.807737 
L 1110.674537 -438.331547 
L 1088.028433 -429.696626 
L 1065.38233 -405.950594 
L 1042.736226 -397.315674 
L 1020.090122 -392.998213 
L 997.444018 -380.045832 
L 974.797914 -358.458531 
L 952.15181 -334.712499 
L 929.505706 -321.760118 
L 906.859602 -310.966467 
L 884.213498 -293.696626 
L 861.567394 -276.426785 
L 838.921291 -265.633134 
L 816.275187 -244.045832 
L 793.629083 -209.50615 
L 770.982979 -194.395039 
L 748.336875 -168.490277 
L 725.690771 -144.744245 
L 703.044667 -131.791864 
L 680.398563 -116.680753 
L 657.752459 -99.410912 
L 635.106356 -90.775991 
L 612.460252 -88.617261 
L 589.814148 -79.98234 
L 567.168044 -77.82361 
L 544.52194 -73.50615 
L 521.875836 -71.34742 
L 499.229732 -71.34742 
L 476.583628 -71.34742 
L 453.937524 -71.34742 
L 318.060901 -71.34742 
L 295.414797 -71.34742 
L 272.768693 -71.34742 
L 227.476485 -71.34742 
L 114.245966 -71.34742 
z
" id="m69829627cd" style="stroke:#988ed5;stroke-opacity:0.3;stroke-width:0.5;"/>
    </defs>
    <g clip-path="url(#p88573a1444)">
     <use style="fill:#988ed5;fill-opacity:0.3;stroke:#988ed5;stroke-opacity:0.3;stroke-width:0.5;" x="0" xlink:href="#m69829627cd" y="584.14619"/>
    </g>
   </g>
   <g id="PolyCollection_4">
    <defs>
     <path d="M 114.245966 -69.18869 
L 114.245966 -69.18869 
L 227.476485 -69.18869 
L 272.768693 -69.18869 
L 295.414797 -69.18869 
L 318.060901 -69.18869 
L 453.937524 -69.18869 
L 476.583628 -69.18869 
L 499.229732 -69.18869 
L 521.875836 -69.18869 
L 544.52194 -69.18869 
L 567.168044 -69.18869 
L 589.814148 -69.18869 
L 612.460252 -69.18869 
L 635.106356 -69.18869 
L 657.752459 -69.18869 
L 680.398563 -69.18869 
L 703.044667 -69.18869 
L 725.690771 -69.18869 
L 748.336875 -69.18869 
L 770.982979 -69.18869 
L 793.629083 -69.18869 
L 816.275187 -69.18869 
L 838.921291 -69.18869 
L 861.567394 -69.18869 
L 884.213498 -69.18869 
L 906.859602 -69.18869 
L 929.505706 -69.18869 
L 952.15181 -69.18869 
L 974.797914 -69.18869 
L 997.444018 -69.18869 
L 1020.090122 -69.18869 
L 1042.736226 -69.18869 
L 1065.38233 -69.18869 
L 1088.028433 -69.18869 
L 1110.674537 -69.18869 
L 1133.320641 -69.18869 
L 1155.966745 -69.18869 
L 1178.612849 -69.18869 
L 1201.258953 -69.18869 
L 1223.905057 -69.18869 
L 1246.551161 -69.18869 
L 1269.197265 -69.18869 
L 1291.843369 -69.18869 
L 1314.489472 -69.18869 
L 1337.135576 -69.18869 
L 1359.78168 -69.18869 
L 1382.427784 -69.18869 
L 1382.427784 -470.712499 
L 1382.427784 -470.712499 
L 1359.78168 -470.712499 
L 1337.135576 -468.553769 
L 1314.489472 -468.553769 
L 1291.843369 -466.395039 
L 1269.197265 -464.236309 
L 1246.551161 -464.236309 
L 1223.905057 -459.918848 
L 1201.258953 -455.601388 
L 1178.612849 -453.442658 
L 1155.966745 -453.442658 
L 1133.320641 -453.442658 
L 1110.674537 -434.014086 
L 1088.028433 -429.696626 
L 1065.38233 -421.061705 
L 1042.736226 -414.585515 
L 1020.090122 -403.791864 
L 997.444018 -388.680753 
L 974.797914 -380.045832 
L 952.15181 -367.093452 
L 929.505706 -339.029959 
L 906.859602 -321.760118 
L 884.213498 -300.172817 
L 861.567394 -248.363293 
L 838.921291 -237.569642 
L 816.275187 -203.029959 
L 793.629083 -196.553769 
L 770.982979 -172.807737 
L 748.336875 -151.220436 
L 725.690771 -105.887102 
L 703.044667 -101.569642 
L 680.398563 -92.934721 
L 657.752459 -86.458531 
L 635.106356 -79.98234 
L 612.460252 -77.82361 
L 589.814148 -73.50615 
L 567.168044 -73.50615 
L 544.52194 -73.50615 
L 521.875836 -69.18869 
L 499.229732 -69.18869 
L 476.583628 -69.18869 
L 453.937524 -69.18869 
L 318.060901 -69.18869 
L 295.414797 -69.18869 
L 272.768693 -69.18869 
L 227.476485 -69.18869 
L 114.245966 -69.18869 
z
" id="mfc4620a283" style="stroke:#777777;stroke-opacity:0.3;stroke-width:0.5;"/>
    </defs>
    <g clip-path="url(#p88573a1444)">
     <use style="fill:#777777;fill-opacity:0.3;stroke:#777777;stroke-opacity:0.3;stroke-width:0.5;" x="0" xlink:href="#mfc4620a283" y="584.14619"/>
    </g>
   </g>
   <g id="PolyCollection_5">
    <defs>
     <path d="M 114.245966 -69.18869 
L 114.245966 -69.18869 
L 227.476485 -69.18869 
L 272.768693 -69.18869 
L 295.414797 -69.18869 
L 318.060901 -69.18869 
L 453.937524 -69.18869 
L 476.583628 -69.18869 
L 499.229732 -69.18869 
L 521.875836 -69.18869 
L 544.52194 -69.18869 
L 567.168044 -69.18869 
L 589.814148 -69.18869 
L 612.460252 -69.18869 
L 635.106356 -69.18869 
L 657.752459 -69.18869 
L 680.398563 -69.18869 
L 703.044667 -69.18869 
L 725.690771 -69.18869 
L 748.336875 -69.18869 
L 770.982979 -69.18869 
L 793.629083 -69.18869 
L 816.275187 -69.18869 
L 838.921291 -69.18869 
L 861.567394 -69.18869 
L 884.213498 -69.18869 
L 906.859602 -69.18869 
L 929.505706 -69.18869 
L 952.15181 -69.18869 
L 974.797914 -69.18869 
L 997.444018 -69.18869 
L 1020.090122 -69.18869 
L 1042.736226 -69.18869 
L 1065.38233 -69.18869 
L 1088.028433 -69.18869 
L 1110.674537 -69.18869 
L 1133.320641 -69.18869 
L 1155.966745 -69.18869 
L 1178.612849 -69.18869 
L 1201.258953 -69.18869 
L 1223.905057 -69.18869 
L 1246.551161 -69.18869 
L 1269.197265 -69.18869 
L 1291.843369 -69.18869 
L 1314.489472 -69.18869 
L 1337.135576 -69.18869 
L 1359.78168 -69.18869 
L 1382.427784 -69.18869 
L 1382.427784 -410.268055 
L 1382.427784 -410.268055 
L 1359.78168 -405.950594 
L 1337.135576 -401.633134 
L 1314.489472 -399.474404 
L 1291.843369 -392.998213 
L 1269.197265 -388.680753 
L 1246.551161 -388.680753 
L 1223.905057 -382.204563 
L 1201.258953 -377.887102 
L 1178.612849 -375.728372 
L 1155.966745 -373.569642 
L 1133.320641 -367.093452 
L 1110.674537 -364.934721 
L 1088.028433 -360.617261 
L 1065.38233 -339.029959 
L 1042.736226 -326.077578 
L 1020.090122 -317.442658 
L 997.444018 -291.537896 
L 974.797914 -282.902975 
L 952.15181 -246.204563 
L 929.505706 -224.617261 
L 906.859602 -205.18869 
L 884.213498 -200.871229 
L 861.567394 -194.395039 
L 838.921291 -192.236309 
L 816.275187 -185.760118 
L 793.629083 -168.490277 
L 770.982979 -157.696626 
L 748.336875 -131.791864 
L 725.690771 -120.998213 
L 703.044667 -105.887102 
L 680.398563 -92.934721 
L 657.752459 -84.299801 
L 635.106356 -77.82361 
L 612.460252 -73.50615 
L 589.814148 -73.50615 
L 567.168044 -71.34742 
L 544.52194 -69.18869 
L 521.875836 -69.18869 
L 499.229732 -69.18869 
L 476.583628 -69.18869 
L 453.937524 -69.18869 
L 318.060901 -69.18869 
L 295.414797 -69.18869 
L 272.768693 -69.18869 
L 227.476485 -69.18869 
L 114.245966 -69.18869 
z
" id="medfab50d79" style="stroke:#fbc15e;stroke-opacity:0.3;stroke-width:0.5;"/>
    </defs>
    <g clip-path="url(#p88573a1444)">
     <use style="fill:#fbc15e;fill-opacity:0.3;stroke:#fbc15e;stroke-opacity:0.3;stroke-width:0.5;" x="0" xlink:href="#medfab50d79" y="584.14619"/>
    </g>
   </g>
   <g id="line2d_27">
    <path clip-path="url(#p88573a1444)" d="M 114.245966 514.9575 
L 227.476485 514.9575 
L 272.768693 514.9575 
L 295.414797 514.9575 
L 318.060901 514.9575 
L 453.937524 514.9575 
L 476.583628 512.79877 
L 499.229732 512.79877 
L 521.875836 512.79877 
L 544.52194 512.79877 
L 567.168044 506.322579 
L 589.814148 502.005119 
L 612.460252 499.846389 
L 635.106356 495.528929 
L 657.752459 495.528929 
L 680.398563 491.211468 
L 703.044667 482.576548 
L 725.690771 467.465437 
L 748.336875 448.036865 
L 770.982979 432.925754 
L 793.629083 391.909881 
L 816.275187 363.846389 
L 838.921291 337.941627 
L 861.567394 318.513056 
L 884.213498 299.084484 
L 906.859602 264.544802 
L 929.505706 225.687659 
L 952.15181 193.306706 
L 974.797914 171.719405 
L 997.444018 135.020992 
L 1020.090122 117.751151 
L 1042.736226 98.322579 
L 1065.38233 91.846389 
L 1088.028433 83.211468 
L 1110.674537 72.417817 
L 1133.320641 72.417817 
L 1155.966745 63.782897 
L 1178.612849 61.624167 
L 1201.258953 57.306706 
L 1223.905057 55.147976 
L 1246.551161 52.989246 
L 1269.197265 48.671786 
L 1291.843369 48.671786 
L 1314.489472 48.671786 
L 1337.135576 48.671786 
L 1359.78168 48.671786 
L 1382.427784 48.671786 
" style="fill:none;stroke:#e24a33;stroke-linecap:square;stroke-opacity:0.3;stroke-width:1.5;"/>
   </g>
   <g id="line2d_28">
    <path clip-path="url(#p88573a1444)" d="M 114.245966 514.9575 
L 227.476485 512.79877 
L 272.768693 510.64004 
L 295.414797 508.48131 
L 318.060901 508.48131 
L 453.937524 508.48131 
L 476.583628 508.48131 
L 499.229732 508.48131 
L 521.875836 506.322579 
L 544.52194 506.322579 
L 567.168044 502.005119 
L 589.814148 502.005119 
L 612.460252 499.846389 
L 635.106356 495.528929 
L 657.752459 493.370198 
L 680.398563 482.576548 
L 703.044667 478.259087 
L 725.690771 456.671786 
L 748.336875 435.084484 
L 770.982979 411.338452 
L 793.629083 402.703532 
L 816.275187 374.64004 
L 838.921291 340.100357 
L 861.567394 322.830516 
L 884.213498 296.925754 
L 906.859602 271.020992 
L 929.505706 247.27496 
L 952.15181 230.005119 
L 974.797914 199.782897 
L 997.444018 180.354325 
L 1020.090122 178.195595 
L 1042.736226 158.767024 
L 1065.38233 147.973373 
L 1088.028433 139.338452 
L 1110.674537 122.068611 
L 1133.320641 104.79877 
L 1155.966745 96.163849 
L 1178.612849 83.211468 
L 1201.258953 83.211468 
L 1223.905057 81.052738 
L 1246.551161 70.259087 
L 1269.197265 68.100357 
L 1291.843369 59.465437 
L 1314.489472 57.306706 
L 1337.135576 57.306706 
L 1359.78168 57.306706 
L 1382.427784 57.306706 
" style="fill:none;stroke:#348abd;stroke-linecap:square;stroke-opacity:0.3;stroke-width:1.5;"/>
   </g>
   <g id="line2d_29">
    <path clip-path="url(#p88573a1444)" d="M 114.245966 512.79877 
L 227.476485 512.79877 
L 272.768693 512.79877 
L 295.414797 512.79877 
L 318.060901 512.79877 
L 453.937524 512.79877 
L 476.583628 512.79877 
L 499.229732 512.79877 
L 521.875836 512.79877 
L 544.52194 510.64004 
L 567.168044 506.322579 
L 589.814148 504.163849 
L 612.460252 495.528929 
L 635.106356 493.370198 
L 657.752459 484.735278 
L 680.398563 467.465437 
L 703.044667 452.354325 
L 725.690771 439.401944 
L 748.336875 415.655913 
L 770.982979 389.751151 
L 793.629083 374.64004 
L 816.275187 340.100357 
L 838.921291 318.513056 
L 861.567394 307.719405 
L 884.213498 290.449563 
L 906.859602 273.179722 
L 929.505706 262.386071 
L 952.15181 249.43369 
L 974.797914 225.687659 
L 997.444018 204.100357 
L 1020.090122 191.147976 
L 1042.736226 186.830516 
L 1065.38233 178.195595 
L 1088.028433 154.449563 
L 1110.674537 145.814643 
L 1133.320641 139.338452 
L 1155.966745 132.862262 
L 1178.612849 130.703532 
L 1201.258953 128.544802 
L 1223.905057 128.544802 
L 1246.551161 122.068611 
L 1269.197265 117.751151 
L 1291.843369 115.592421 
L 1314.489472 115.592421 
L 1337.135576 115.592421 
L 1359.78168 113.43369 
L 1382.427784 113.43369 
" style="fill:none;stroke:#988ed5;stroke-linecap:square;stroke-opacity:0.3;stroke-width:1.5;"/>
   </g>
   <g id="line2d_30">
    <path clip-path="url(#p88573a1444)" d="M 114.245966 514.9575 
L 227.476485 514.9575 
L 272.768693 514.9575 
L 295.414797 514.9575 
L 318.060901 514.9575 
L 453.937524 514.9575 
L 476.583628 514.9575 
L 499.229732 514.9575 
L 521.875836 514.9575 
L 544.52194 510.64004 
L 567.168044 510.64004 
L 589.814148 510.64004 
L 612.460252 506.322579 
L 635.106356 504.163849 
L 657.752459 497.687659 
L 680.398563 491.211468 
L 703.044667 482.576548 
L 725.690771 478.259087 
L 748.336875 432.925754 
L 770.982979 411.338452 
L 793.629083 387.592421 
L 816.275187 381.11623 
L 838.921291 346.576548 
L 861.567394 335.782897 
L 884.213498 283.973373 
L 906.859602 262.386071 
L 929.505706 245.11623 
L 952.15181 217.052738 
L 974.797914 204.100357 
L 997.444018 195.465437 
L 1020.090122 180.354325 
L 1042.736226 169.560675 
L 1065.38233 163.084484 
L 1088.028433 154.449563 
L 1110.674537 150.132103 
L 1133.320641 130.703532 
L 1155.966745 130.703532 
L 1178.612849 130.703532 
L 1201.258953 128.544802 
L 1223.905057 124.227341 
L 1246.551161 119.909881 
L 1269.197265 119.909881 
L 1291.843369 117.751151 
L 1314.489472 115.592421 
L 1337.135576 115.592421 
L 1359.78168 113.43369 
L 1382.427784 113.43369 
" style="fill:none;stroke:#777777;stroke-linecap:square;stroke-opacity:0.3;stroke-width:1.5;"/>
   </g>
   <g id="line2d_31">
    <path clip-path="url(#p88573a1444)" d="M 114.245966 514.9575 
L 227.476485 514.9575 
L 272.768693 514.9575 
L 295.414797 514.9575 
L 318.060901 514.9575 
L 453.937524 514.9575 
L 476.583628 514.9575 
L 499.229732 514.9575 
L 521.875836 514.9575 
L 544.52194 514.9575 
L 567.168044 512.79877 
L 589.814148 510.64004 
L 612.460252 510.64004 
L 635.106356 506.322579 
L 657.752459 499.846389 
L 680.398563 491.211468 
L 703.044667 478.259087 
L 725.690771 463.147976 
L 748.336875 452.354325 
L 770.982979 426.449563 
L 793.629083 415.655913 
L 816.275187 398.386071 
L 838.921291 391.909881 
L 861.567394 389.751151 
L 884.213498 383.27496 
L 906.859602 378.9575 
L 929.505706 359.528929 
L 952.15181 337.941627 
L 974.797914 301.243214 
L 997.444018 292.608294 
L 1020.090122 266.703532 
L 1042.736226 258.068611 
L 1065.38233 245.11623 
L 1088.028433 223.528929 
L 1110.674537 219.211468 
L 1133.320641 217.052738 
L 1155.966745 210.576548 
L 1178.612849 208.417817 
L 1201.258953 206.259087 
L 1223.905057 201.941627 
L 1246.551161 195.465437 
L 1269.197265 195.465437 
L 1291.843369 191.147976 
L 1314.489472 184.671786 
L 1337.135576 182.513056 
L 1359.78168 178.195595 
L 1382.427784 173.878135 
" style="fill:none;stroke:#fbc15e;stroke-linecap:square;stroke-opacity:0.3;stroke-width:1.5;"/>
   </g>
   <g id="patch_3">
    <path d="M 50.836875 514.9575 
L 50.836875 25.3575 
" style="fill:none;stroke:#ffffff;stroke-linecap:square;stroke-linejoin:miter;"/>
   </g>
   <g id="patch_4">
    <path d="M 1445.836875 514.9575 
L 1445.836875 25.3575 
" style="fill:none;stroke:#ffffff;stroke-linecap:square;stroke-linejoin:miter;"/>
   </g>
   <g id="patch_5">
    <path d="M 50.836875 514.9575 
L 1445.836875 514.9575 
" style="fill:none;stroke:#ffffff;stroke-linecap:square;stroke-linejoin:miter;"/>
   </g>
   <g id="patch_6">
    <path d="M 50.836875 25.3575 
L 1445.836875 25.3575 
" style="fill:none;stroke:#ffffff;stroke-linecap:square;stroke-linejoin:miter;"/>
   </g>
   <g id="text_16">
    <!-- Covid19 Cases No. Top5 (by DHB) -->
    <defs>
     <path d="M 2.984375 54.6875 
L 12.5 54.6875 
L 29.59375 8.796875 
L 46.6875 54.6875 
L 56.203125 54.6875 
L 35.6875 0 
L 23.484375 0 
z
" id="DejaVuSans-118"/>
     <path d="M 9.421875 54.6875 
L 18.40625 54.6875 
L 18.40625 0 
L 9.421875 0 
z
M 9.421875 75.984375 
L 18.40625 75.984375 
L 18.40625 64.59375 
L 9.421875 64.59375 
z
" id="DejaVuSans-105"/>
     <path d="M 45.40625 46.390625 
L 45.40625 75.984375 
L 54.390625 75.984375 
L 54.390625 0 
L 45.40625 0 
L 45.40625 8.203125 
Q 42.578125 3.328125 38.25 0.953125 
Q 33.9375 -1.421875 27.875 -1.421875 
Q 17.96875 -1.421875 11.734375 6.484375 
Q 5.515625 14.40625 5.515625 27.296875 
Q 5.515625 40.1875 11.734375 48.09375 
Q 17.96875 56 27.875 56 
Q 33.9375 56 38.25 53.625 
Q 42.578125 51.265625 45.40625 46.390625 
z
M 14.796875 27.296875 
Q 14.796875 17.390625 18.875 11.75 
Q 22.953125 6.109375 30.078125 6.109375 
Q 37.203125 6.109375 41.296875 11.75 
Q 45.40625 17.390625 45.40625 27.296875 
Q 45.40625 37.203125 41.296875 42.84375 
Q 37.203125 48.484375 30.078125 48.484375 
Q 22.953125 48.484375 18.875 42.84375 
Q 14.796875 37.203125 14.796875 27.296875 
z
" id="DejaVuSans-100"/>
     <path d="M 10.984375 1.515625 
L 10.984375 10.5 
Q 14.703125 8.734375 18.5 7.8125 
Q 22.3125 6.890625 25.984375 6.890625 
Q 35.75 6.890625 40.890625 13.453125 
Q 46.046875 20.015625 46.78125 33.40625 
Q 43.953125 29.203125 39.59375 26.953125 
Q 35.25 24.703125 29.984375 24.703125 
Q 19.046875 24.703125 12.671875 31.3125 
Q 6.296875 37.9375 6.296875 49.421875 
Q 6.296875 60.640625 12.9375 67.421875 
Q 19.578125 74.21875 30.609375 74.21875 
Q 43.265625 74.21875 49.921875 64.515625 
Q 56.59375 54.828125 56.59375 36.375 
Q 56.59375 19.140625 48.40625 8.859375 
Q 40.234375 -1.421875 26.421875 -1.421875 
Q 22.703125 -1.421875 18.890625 -0.6875 
Q 15.09375 0.046875 10.984375 1.515625 
z
M 30.609375 32.421875 
Q 37.25 32.421875 41.125 36.953125 
Q 45.015625 41.5 45.015625 49.421875 
Q 45.015625 57.28125 41.125 61.84375 
Q 37.25 66.40625 30.609375 66.40625 
Q 23.96875 66.40625 20.09375 61.84375 
Q 16.21875 57.28125 16.21875 49.421875 
Q 16.21875 41.5 20.09375 36.953125 
Q 23.96875 32.421875 30.609375 32.421875 
z
" id="DejaVuSans-57"/>
     <path d="M -0.296875 72.90625 
L 61.375 72.90625 
L 61.375 64.59375 
L 35.5 64.59375 
L 35.5 0 
L 25.59375 0 
L 25.59375 64.59375 
L -0.296875 64.59375 
z
" id="DejaVuSans-84"/>
     <path d="M 18.109375 8.203125 
L 18.109375 -20.796875 
L 9.078125 -20.796875 
L 9.078125 54.6875 
L 18.109375 54.6875 
L 18.109375 46.390625 
Q 20.953125 51.265625 25.265625 53.625 
Q 29.59375 56 35.59375 56 
Q 45.5625 56 51.78125 48.09375 
Q 58.015625 40.1875 58.015625 27.296875 
Q 58.015625 14.40625 51.78125 6.484375 
Q 45.5625 -1.421875 35.59375 -1.421875 
Q 29.59375 -1.421875 25.265625 0.953125 
Q 20.953125 3.328125 18.109375 8.203125 
z
M 48.6875 27.296875 
Q 48.6875 37.203125 44.609375 42.84375 
Q 40.53125 48.484375 33.40625 48.484375 
Q 26.265625 48.484375 22.1875 42.84375 
Q 18.109375 37.203125 18.109375 27.296875 
Q 18.109375 17.390625 22.1875 11.75 
Q 26.265625 6.109375 33.40625 6.109375 
Q 40.53125 6.109375 44.609375 11.75 
Q 48.6875 17.390625 48.6875 27.296875 
z
" id="DejaVuSans-112"/>
     <path d="M 31 75.875 
Q 24.46875 64.65625 21.28125 53.65625 
Q 18.109375 42.671875 18.109375 31.390625 
Q 18.109375 20.125 21.3125 9.0625 
Q 24.515625 -2 31 -13.1875 
L 23.1875 -13.1875 
Q 15.875 -1.703125 12.234375 9.375 
Q 8.59375 20.453125 8.59375 31.390625 
Q 8.59375 42.28125 12.203125 53.3125 
Q 15.828125 64.359375 23.1875 75.875 
z
" id="DejaVuSans-40"/>
     <path d="M 48.6875 27.296875 
Q 48.6875 37.203125 44.609375 42.84375 
Q 40.53125 48.484375 33.40625 48.484375 
Q 26.265625 48.484375 22.1875 42.84375 
Q 18.109375 37.203125 18.109375 27.296875 
Q 18.109375 17.390625 22.1875 11.75 
Q 26.265625 6.109375 33.40625 6.109375 
Q 40.53125 6.109375 44.609375 11.75 
Q 48.6875 17.390625 48.6875 27.296875 
z
M 18.109375 46.390625 
Q 20.953125 51.265625 25.265625 53.625 
Q 29.59375 56 35.59375 56 
Q 45.5625 56 51.78125 48.09375 
Q 58.015625 40.1875 58.015625 27.296875 
Q 58.015625 14.40625 51.78125 6.484375 
Q 45.5625 -1.421875 35.59375 -1.421875 
Q 29.59375 -1.421875 25.265625 0.953125 
Q 20.953125 3.328125 18.109375 8.203125 
L 18.109375 0 
L 9.078125 0 
L 9.078125 75.984375 
L 18.109375 75.984375 
z
" id="DejaVuSans-98"/>
     <path d="M 32.171875 -5.078125 
Q 28.375 -14.84375 24.75 -17.8125 
Q 21.140625 -20.796875 15.09375 -20.796875 
L 7.90625 -20.796875 
L 7.90625 -13.28125 
L 13.1875 -13.28125 
Q 16.890625 -13.28125 18.9375 -11.515625 
Q 21 -9.765625 23.484375 -3.21875 
L 25.09375 0.875 
L 2.984375 54.6875 
L 12.5 54.6875 
L 29.59375 11.921875 
L 46.6875 54.6875 
L 56.203125 54.6875 
z
" id="DejaVuSans-121"/>
     <path d="M 9.8125 72.90625 
L 19.671875 72.90625 
L 19.671875 43.015625 
L 55.515625 43.015625 
L 55.515625 72.90625 
L 65.375 72.90625 
L 65.375 0 
L 55.515625 0 
L 55.515625 34.71875 
L 19.671875 34.71875 
L 19.671875 0 
L 9.8125 0 
z
" id="DejaVuSans-72"/>
     <path d="M 19.671875 34.8125 
L 19.671875 8.109375 
L 35.5 8.109375 
Q 43.453125 8.109375 47.28125 11.40625 
Q 51.125 14.703125 51.125 21.484375 
Q 51.125 28.328125 47.28125 31.5625 
Q 43.453125 34.8125 35.5 34.8125 
z
M 19.671875 64.796875 
L 19.671875 42.828125 
L 34.28125 42.828125 
Q 41.5 42.828125 45.03125 45.53125 
Q 48.578125 48.25 48.578125 53.8125 
Q 48.578125 59.328125 45.03125 62.0625 
Q 41.5 64.796875 34.28125 64.796875 
z
M 9.8125 72.90625 
L 35.015625 72.90625 
Q 46.296875 72.90625 52.390625 68.21875 
Q 58.5 63.53125 58.5 54.890625 
Q 58.5 48.1875 55.375 44.234375 
Q 52.25 40.28125 46.1875 39.3125 
Q 53.46875 37.75 57.5 32.78125 
Q 61.53125 27.828125 61.53125 20.40625 
Q 61.53125 10.640625 54.890625 5.3125 
Q 48.25 0 35.984375 0 
L 9.8125 0 
z
" id="DejaVuSans-66"/>
     <path d="M 8.015625 75.875 
L 15.828125 75.875 
Q 23.140625 64.359375 26.78125 53.3125 
Q 30.421875 42.28125 30.421875 31.390625 
Q 30.421875 20.453125 26.78125 9.375 
Q 23.140625 -1.703125 15.828125 -13.1875 
L 8.015625 -13.1875 
Q 14.5 -2 17.703125 9.0625 
Q 20.90625 20.125 20.90625 31.390625 
Q 20.90625 42.671875 17.703125 53.65625 
Q 14.5 64.65625 8.015625 75.875 
z
" id="DejaVuSans-41"/>
    </defs>
    <g transform="translate(612.109375 19.3575)scale(0.16 -0.16)">
     <use xlink:href="#DejaVuSans-67"/>
     <use x="69.824219" xlink:href="#DejaVuSans-111"/>
     <use x="131.005859" xlink:href="#DejaVuSans-118"/>
     <use x="190.185547" xlink:href="#DejaVuSans-105"/>
     <use x="217.96875" xlink:href="#DejaVuSans-100"/>
     <use x="281.445312" xlink:href="#DejaVuSans-49"/>
     <use x="345.068359" xlink:href="#DejaVuSans-57"/>
     <use x="408.691406" xlink:href="#DejaVuSans-32"/>
     <use x="440.478516" xlink:href="#DejaVuSans-67"/>
     <use x="510.302734" xlink:href="#DejaVuSans-97"/>
     <use x="571.582031" xlink:href="#DejaVuSans-115"/>
     <use x="623.681641" xlink:href="#DejaVuSans-101"/>
     <use x="685.205078" xlink:href="#DejaVuSans-115"/>
     <use x="737.304688" xlink:href="#DejaVuSans-32"/>
     <use x="769.091797" xlink:href="#DejaVuSans-78"/>
     <use x="843.896484" xlink:href="#DejaVuSans-111"/>
     <use x="905.0625" xlink:href="#DejaVuSans-46"/>
     <use x="936.849609" xlink:href="#DejaVuSans-32"/>
     <use x="968.636719" xlink:href="#DejaVuSans-84"/>
     <use x="1029.455078" xlink:href="#DejaVuSans-111"/>
     <use x="1090.636719" xlink:href="#DejaVuSans-112"/>
     <use x="1154.113281" xlink:href="#DejaVuSans-53"/>
     <use x="1217.736328" xlink:href="#DejaVuSans-32"/>
     <use x="1249.523438" xlink:href="#DejaVuSans-40"/>
     <use x="1288.537109" xlink:href="#DejaVuSans-98"/>
     <use x="1352.013672" xlink:href="#DejaVuSans-121"/>
     <use x="1411.193359" xlink:href="#DejaVuSans-32"/>
     <use x="1442.980469" xlink:href="#DejaVuSans-68"/>
     <use x="1519.982422" xlink:href="#DejaVuSans-72"/>
     <use x="1595.177734" xlink:href="#DejaVuSans-66"/>
     <use x="1663.78125" xlink:href="#DejaVuSans-41"/>
    </g>
   </g>
   <g id="legend_1">
    <g id="patch_7">
     <path d="M 57.836875 106.748125 
L 146.185313 106.748125 
Q 148.185313 106.748125 148.185313 104.748125 
L 148.185313 32.3575 
Q 148.185313 30.3575 146.185313 30.3575 
L 57.836875 30.3575 
Q 55.836875 30.3575 55.836875 32.3575 
L 55.836875 104.748125 
Q 55.836875 106.748125 57.836875 106.748125 
z
" style="fill:#e5e5e5;opacity:0.8;stroke:#cccccc;stroke-linejoin:miter;stroke-width:0.5;"/>
    </g>
    <g id="patch_8">
     <path d="M 59.836875 41.955938 
L 79.836875 41.955938 
L 79.836875 34.955938 
L 59.836875 34.955938 
z
" style="fill:#e24a33;opacity:0.3;stroke:#e24a33;stroke-linejoin:miter;stroke-width:0.5;"/>
    </g>
    <g id="text_17">
     <!-- Southern -->
     <defs>
      <path d="M 53.515625 70.515625 
L 53.515625 60.890625 
Q 47.90625 63.578125 42.921875 64.890625 
Q 37.9375 66.21875 33.296875 66.21875 
Q 25.25 66.21875 20.875 63.09375 
Q 16.5 59.96875 16.5 54.203125 
Q 16.5 49.359375 19.40625 46.890625 
Q 22.3125 44.4375 30.421875 42.921875 
L 36.375 41.703125 
Q 47.40625 39.59375 52.65625 34.296875 
Q 57.90625 29 57.90625 20.125 
Q 57.90625 9.515625 50.796875 4.046875 
Q 43.703125 -1.421875 29.984375 -1.421875 
Q 24.8125 -1.421875 18.96875 -0.25 
Q 13.140625 0.921875 6.890625 3.21875 
L 6.890625 13.375 
Q 12.890625 10.015625 18.65625 8.296875 
Q 24.421875 6.59375 29.984375 6.59375 
Q 38.421875 6.59375 43.015625 9.90625 
Q 47.609375 13.234375 47.609375 19.390625 
Q 47.609375 24.75 44.3125 27.78125 
Q 41.015625 30.8125 33.5 32.328125 
L 27.484375 33.5 
Q 16.453125 35.6875 11.515625 40.375 
Q 6.59375 45.0625 6.59375 53.421875 
Q 6.59375 63.09375 13.40625 68.65625 
Q 20.21875 74.21875 32.171875 74.21875 
Q 37.3125 74.21875 42.625 73.28125 
Q 47.953125 72.359375 53.515625 70.515625 
z
" id="DejaVuSans-83"/>
      <path d="M 8.5 21.578125 
L 8.5 54.6875 
L 17.484375 54.6875 
L 17.484375 21.921875 
Q 17.484375 14.15625 20.5 10.265625 
Q 23.53125 6.390625 29.59375 6.390625 
Q 36.859375 6.390625 41.078125 11.03125 
Q 45.3125 15.671875 45.3125 23.6875 
L 45.3125 54.6875 
L 54.296875 54.6875 
L 54.296875 0 
L 45.3125 0 
L 45.3125 8.40625 
Q 42.046875 3.421875 37.71875 1 
Q 33.40625 -1.421875 27.6875 -1.421875 
Q 18.265625 -1.421875 13.375 4.4375 
Q 8.5 10.296875 8.5 21.578125 
z
M 31.109375 56 
z
" id="DejaVuSans-117"/>
      <path d="M 54.890625 33.015625 
L 54.890625 0 
L 45.90625 0 
L 45.90625 32.71875 
Q 45.90625 40.484375 42.875 44.328125 
Q 39.84375 48.1875 33.796875 48.1875 
Q 26.515625 48.1875 22.3125 43.546875 
Q 18.109375 38.921875 18.109375 30.90625 
L 18.109375 0 
L 9.078125 0 
L 9.078125 75.984375 
L 18.109375 75.984375 
L 18.109375 46.1875 
Q 21.34375 51.125 25.703125 53.5625 
Q 30.078125 56 35.796875 56 
Q 45.21875 56 50.046875 50.171875 
Q 54.890625 44.34375 54.890625 33.015625 
z
" id="DejaVuSans-104"/>
      <path d="M 41.109375 46.296875 
Q 39.59375 47.171875 37.8125 47.578125 
Q 36.03125 48 33.890625 48 
Q 26.265625 48 22.1875 43.046875 
Q 18.109375 38.09375 18.109375 28.8125 
L 18.109375 0 
L 9.078125 0 
L 9.078125 54.6875 
L 18.109375 54.6875 
L 18.109375 46.1875 
Q 20.953125 51.171875 25.484375 53.578125 
Q 30.03125 56 36.53125 56 
Q 37.453125 56 38.578125 55.875 
Q 39.703125 55.765625 41.0625 55.515625 
z
" id="DejaVuSans-114"/>
      <path d="M 54.890625 33.015625 
L 54.890625 0 
L 45.90625 0 
L 45.90625 32.71875 
Q 45.90625 40.484375 42.875 44.328125 
Q 39.84375 48.1875 33.796875 48.1875 
Q 26.515625 48.1875 22.3125 43.546875 
Q 18.109375 38.921875 18.109375 30.90625 
L 18.109375 0 
L 9.078125 0 
L 9.078125 54.6875 
L 18.109375 54.6875 
L 18.109375 46.1875 
Q 21.34375 51.125 25.703125 53.5625 
Q 30.078125 56 35.796875 56 
Q 45.21875 56 50.046875 50.171875 
Q 54.890625 44.34375 54.890625 33.015625 
z
" id="DejaVuSans-110"/>
     </defs>
     <g transform="translate(87.836875 41.955938)scale(0.1 -0.1)">
      <use xlink:href="#DejaVuSans-83"/>
      <use x="63.476562" xlink:href="#DejaVuSans-111"/>
      <use x="124.658203" xlink:href="#DejaVuSans-117"/>
      <use x="188.037109" xlink:href="#DejaVuSans-116"/>
      <use x="227.246094" xlink:href="#DejaVuSans-104"/>
      <use x="290.625" xlink:href="#DejaVuSans-101"/>
      <use x="352.148438" xlink:href="#DejaVuSans-114"/>
      <use x="393.246094" xlink:href="#DejaVuSans-110"/>
     </g>
    </g>
    <g id="patch_9">
     <path d="M 59.836875 56.634063 
L 79.836875 56.634063 
L 79.836875 49.634063 
L 59.836875 49.634063 
z
" style="fill:#348abd;opacity:0.3;stroke:#348abd;stroke-linejoin:miter;stroke-width:0.5;"/>
    </g>
    <g id="text_18">
     <!-- Waitemata -->
     <defs>
      <path d="M 3.328125 72.90625 
L 13.28125 72.90625 
L 28.609375 11.28125 
L 43.890625 72.90625 
L 54.984375 72.90625 
L 70.3125 11.28125 
L 85.59375 72.90625 
L 95.609375 72.90625 
L 77.296875 0 
L 64.890625 0 
L 49.515625 63.28125 
L 33.984375 0 
L 21.578125 0 
z
" id="DejaVuSans-87"/>
      <path d="M 52 44.1875 
Q 55.375 50.25 60.0625 53.125 
Q 64.75 56 71.09375 56 
Q 79.640625 56 84.28125 50.015625 
Q 88.921875 44.046875 88.921875 33.015625 
L 88.921875 0 
L 79.890625 0 
L 79.890625 32.71875 
Q 79.890625 40.578125 77.09375 44.375 
Q 74.3125 48.1875 68.609375 48.1875 
Q 61.625 48.1875 57.5625 43.546875 
Q 53.515625 38.921875 53.515625 30.90625 
L 53.515625 0 
L 44.484375 0 
L 44.484375 32.71875 
Q 44.484375 40.625 41.703125 44.40625 
Q 38.921875 48.1875 33.109375 48.1875 
Q 26.21875 48.1875 22.15625 43.53125 
Q 18.109375 38.875 18.109375 30.90625 
L 18.109375 0 
L 9.078125 0 
L 9.078125 54.6875 
L 18.109375 54.6875 
L 18.109375 46.1875 
Q 21.1875 51.21875 25.484375 53.609375 
Q 29.78125 56 35.6875 56 
Q 41.65625 56 45.828125 52.96875 
Q 50 49.953125 52 44.1875 
z
" id="DejaVuSans-109"/>
     </defs>
     <g transform="translate(87.836875 56.634063)scale(0.1 -0.1)">
      <use xlink:href="#DejaVuSans-87"/>
      <use x="98.783203" xlink:href="#DejaVuSans-97"/>
      <use x="160.0625" xlink:href="#DejaVuSans-105"/>
      <use x="187.845703" xlink:href="#DejaVuSans-116"/>
      <use x="227.054688" xlink:href="#DejaVuSans-101"/>
      <use x="288.578125" xlink:href="#DejaVuSans-109"/>
      <use x="385.990234" xlink:href="#DejaVuSans-97"/>
      <use x="447.269531" xlink:href="#DejaVuSans-116"/>
      <use x="486.478516" xlink:href="#DejaVuSans-97"/>
     </g>
    </g>
    <g id="patch_10">
     <path d="M 59.836875 71.312188 
L 79.836875 71.312188 
L 79.836875 64.312188 
L 59.836875 64.312188 
z
" style="fill:#988ed5;opacity:0.3;stroke:#988ed5;stroke-linejoin:miter;stroke-width:0.5;"/>
    </g>
    <g id="text_19">
     <!-- Auckland -->
     <defs>
      <path d="M 34.1875 63.1875 
L 20.796875 26.90625 
L 47.609375 26.90625 
z
M 28.609375 72.90625 
L 39.796875 72.90625 
L 67.578125 0 
L 57.328125 0 
L 50.6875 18.703125 
L 17.828125 18.703125 
L 11.1875 0 
L 0.78125 0 
z
" id="DejaVuSans-65"/>
      <path d="M 48.78125 52.59375 
L 48.78125 44.1875 
Q 44.96875 46.296875 41.140625 47.34375 
Q 37.3125 48.390625 33.40625 48.390625 
Q 24.65625 48.390625 19.8125 42.84375 
Q 14.984375 37.3125 14.984375 27.296875 
Q 14.984375 17.28125 19.8125 11.734375 
Q 24.65625 6.203125 33.40625 6.203125 
Q 37.3125 6.203125 41.140625 7.25 
Q 44.96875 8.296875 48.78125 10.40625 
L 48.78125 2.09375 
Q 45.015625 0.34375 40.984375 -0.53125 
Q 36.96875 -1.421875 32.421875 -1.421875 
Q 20.0625 -1.421875 12.78125 6.34375 
Q 5.515625 14.109375 5.515625 27.296875 
Q 5.515625 40.671875 12.859375 48.328125 
Q 20.21875 56 33.015625 56 
Q 37.15625 56 41.109375 55.140625 
Q 45.0625 54.296875 48.78125 52.59375 
z
" id="DejaVuSans-99"/>
      <path d="M 9.078125 75.984375 
L 18.109375 75.984375 
L 18.109375 31.109375 
L 44.921875 54.6875 
L 56.390625 54.6875 
L 27.390625 29.109375 
L 57.625 0 
L 45.90625 0 
L 18.109375 26.703125 
L 18.109375 0 
L 9.078125 0 
z
" id="DejaVuSans-107"/>
      <path d="M 9.421875 75.984375 
L 18.40625 75.984375 
L 18.40625 0 
L 9.421875 0 
z
" id="DejaVuSans-108"/>
     </defs>
     <g transform="translate(87.836875 71.312188)scale(0.1 -0.1)">
      <use xlink:href="#DejaVuSans-65"/>
      <use x="68.408203" xlink:href="#DejaVuSans-117"/>
      <use x="131.787109" xlink:href="#DejaVuSans-99"/>
      <use x="186.767578" xlink:href="#DejaVuSans-107"/>
      <use x="244.677734" xlink:href="#DejaVuSans-108"/>
      <use x="272.460938" xlink:href="#DejaVuSans-97"/>
      <use x="333.740234" xlink:href="#DejaVuSans-110"/>
      <use x="397.119141" xlink:href="#DejaVuSans-100"/>
     </g>
    </g>
    <g id="patch_11">
     <path d="M 59.836875 85.990313 
L 79.836875 85.990313 
L 79.836875 78.990313 
L 59.836875 78.990313 
z
" style="fill:#777777;opacity:0.3;stroke:#777777;stroke-linejoin:miter;stroke-width:0.5;"/>
    </g>
    <g id="text_20">
     <!-- Waikato -->
     <g transform="translate(87.836875 85.990313)scale(0.1 -0.1)">
      <use xlink:href="#DejaVuSans-87"/>
      <use x="98.783203" xlink:href="#DejaVuSans-97"/>
      <use x="160.0625" xlink:href="#DejaVuSans-105"/>
      <use x="187.845703" xlink:href="#DejaVuSans-107"/>
      <use x="245.740234" xlink:href="#DejaVuSans-97"/>
      <use x="307.019531" xlink:href="#DejaVuSans-116"/>
      <use x="346.228516" xlink:href="#DejaVuSans-111"/>
     </g>
    </g>
    <g id="patch_12">
     <path d="M 59.836875 100.668437 
L 79.836875 100.668437 
L 79.836875 93.668437 
L 59.836875 93.668437 
z
" style="fill:#fbc15e;opacity:0.3;stroke:#fbc15e;stroke-linejoin:miter;stroke-width:0.5;"/>
    </g>
    <g id="text_21">
     <!-- Canterbury -->
     <g transform="translate(87.836875 100.668437)scale(0.1 -0.1)">
      <use xlink:href="#DejaVuSans-67"/>
      <use x="69.824219" xlink:href="#DejaVuSans-97"/>
      <use x="131.103516" xlink:href="#DejaVuSans-110"/>
      <use x="194.482422" xlink:href="#DejaVuSans-116"/>
      <use x="233.691406" xlink:href="#DejaVuSans-101"/>
      <use x="295.214844" xlink:href="#DejaVuSans-114"/>
      <use x="336.328125" xlink:href="#DejaVuSans-98"/>
      <use x="399.804688" xlink:href="#DejaVuSans-117"/>
      <use x="463.183594" xlink:href="#DejaVuSans-114"/>
      <use x="504.296875" xlink:href="#DejaVuSans-121"/>
     </g>
    </g>
   </g>
  </g>
 </g>
 <defs>
  <clipPath id="p88573a1444">
   <rect height="489.6" width="1395" x="50.836875" y="25.3575"/>
  </clipPath>
 </defs>
</svg>
